<?xml version="1.0" standalone="no"?><!DOCTYPE svg PUBLIC "-//W3C//DTD SVG 1.1//EN" "http://www.w3.org/Graphics/SVG/1.1/DTD/svg11.dtd"><svg class="icon" width="200px" height="200.00px" viewBox="0 0 1024 1024" version="1.1" xmlns="http://www.w3.org/2000/svg"><path fill="#4d90ee" d="M476.382609 812.521739L17.808696 552.069565c-11.130435-6.678261-13.356522-20.034783-8.904348-31.165217 6.678261-11.130435 20.034783-13.356522 31.165217-8.904348l438.539131 251.547826L934.956522 592.13913c13.356522-17.808696 66.782609-89.043478 4.452174-164.730434-8.904348-8.904348-6.678261-22.26087 2.226087-31.165218 8.904348-8.904348 22.26087-6.678261 31.165217 2.226087 77.913043 91.269565 28.93913 189.217391-8.904348 227.06087l-4.452174 4.452174-483.060869 182.53913zM476.382609 1024L17.808696 763.547826c-11.130435-6.678261-13.356522-20.034783-8.904348-31.165217 6.678261-11.130435 20.034783-13.356522 31.165217-8.904348l438.539131 251.547826L934.956522 803.617391c13.356522-17.808696 66.782609-89.043478 4.452174-164.730434-8.904348-8.904348-6.678261-22.26087 2.226087-31.165218 8.904348-8.904348 22.26087-6.678261 31.165217 2.226087 77.913043 91.269565 28.93913 189.217391-8.904348 227.06087l-4.452174 4.452174L476.382609 1024zM975.026087 186.991304c-2.226087-2.226087-4.452174-4.452174-6.678261-4.452174L489.73913 0 6.678261 131.33913l2.226087 17.808696 485.286956 256 447.443479-184.765217c57.878261 73.46087 6.678261 142.469565-6.678261 160.278261l-456.347826 171.408695L40.069565 300.521739c-11.130435-6.678261-24.486957-2.226087-31.165217 8.904348-6.678261 11.130435-2.226087 24.486957 8.904348 31.165217L476.382609 601.043478l485.286956-182.53913 4.452174-4.452174c35.617391-37.843478 86.817391-135.791304 8.904348-227.06087z m-409.6 100.173913L489.73913 251.547826l231.513044-89.043478 75.686956 28.93913-231.513043 95.721739z" /></svg>