<?xml version="1.0" standalone="no"?><!DOCTYPE svg PUBLIC "-//W3C//DTD SVG 1.1//EN" "http://www.w3.org/Graphics/SVG/1.1/DTD/svg11.dtd"><svg class="icon" width="200px" height="200.00px" viewBox="0 0 1024 1024" version="1.1" xmlns="http://www.w3.org/2000/svg"><path d="M593.8 699.2c-49.6 0-97.1-11.2-141.1-33.3-9.2-4.6-12.9-15.7-8.3-24.9s15.7-12.8 24.9-8.3c38.8 19.5 80.7 29.4 124.5 29.4 45 0 89.6-11 129.1-31.7 9.1-4.8 20.3-1.3 25 7.8 4.8 9.1 1.3 20.3-7.8 25-44.8 23.5-95.4 36-146.3 36zM778.8 634.4c-5.4 0-10.8-2.4-14.5-7-6.4-8-5.1-19.7 2.9-26.1 66.5-53 104.7-132.3 104.7-217.3 0-10.2 8.3-18.5 18.5-18.5s18.5 8.3 18.5 18.5c0 96.4-43.2 186.2-118.6 246.4-3.4 2.7-7.5 4-11.5 4zM599.9 329.8c-10.2 0-18.5-8.3-18.5-18.5v-72.6c0-10.2 8.3-18.5 18.5-18.5s18.5 8.3 18.5 18.5v72.6c0.1 10.2-8.2 18.5-18.5 18.5z" fill="#2E3742" /><path d="M533.9 461.6l-163.3 413-79.1 69 220.1-548z" fill="#FFFFFF" /><path d="M291.5 957.5c-2.8 0-5.6-0.9-8.1-2.6-5.2-3.7-7.2-10.6-4.9-16.5l220.2-547.9c2.2-5.4 7.7-9 13.3-8.7 5.8 0.2 10.9 3.9 12.8 9.4l22.3 65.9c1.1 3.1 1 6.5-0.2 9.6l-163.3 413c-0.8 2.1-2.1 3.9-3.8 5.4L300.6 954c-2.6 2.3-5.9 3.5-9.1 3.5z m219-521.8L325.9 895.1l33-28.8 160.2-405.2-8.6-25.4z" fill="#2E3742" /><path d="M666.4 467.6l165.4 418.1 79.2 68.9-220.2-547.9z" fill="#FFFFFF" /><path d="M911 958.6c-3.3 0-6.5-1.1-9.1-3.4l-79.1-68.9c-1.7-1.5-3-3.3-3.8-5.4l-165.4-418c-1.3-3.3-1.3-7 0-10.3l24.5-60.9c4.2-10.5 21.6-10.5 25.8 0L924 939.6c2.4 6 0.4 12.8-4.9 16.5-2.5 1.6-5.3 2.5-8.1 2.5z m-67.5-91.2l33 28.8L690.8 434l-9.5 23.7 162.2 409.7zM305.4 769.1H149c-46.1 0-83.6-33.2-83.6-74v-557c0-40.8 37.5-74 83.6-74h483.1c46.1 0 83.6 33.2 83.6 74V286c0 10.2-8.3 18.5-18.5 18.5s-18.5-8.3-18.5-18.5V138.2c0-20.3-20.9-36.9-46.5-36.9H149c-25.7 0-46.5 16.5-46.5 36.9v557c0 20.3 20.9 36.9 46.5 36.9h156.4c10.2 0 18.5 8.3 18.5 18.5 0.1 10.2-8.2 18.5-18.5 18.5z" fill="#2E3742" /><path d="M479.5 217H160.2c-10.2 0-18.5-8.3-18.5-18.5S150 180 160.2 180h319.3c10.2 0 18.5 8.3 18.5 18.5s-8.3 18.5-18.5 18.5zM428.7 346.9H160.2c-10.2 0-18.5-8.3-18.5-18.5s8.3-18.5 18.5-18.5h268.5c10.2 0 18.5 8.3 18.5 18.5s-8.3 18.5-18.5 18.5zM390.6 476.8H160.2c-10.2 0-18.5-8.3-18.5-18.5s8.3-18.5 18.5-18.5h230.4c10.2 0 18.5 8.3 18.5 18.5s-8.3 18.5-18.5 18.5zM599.9 509.7c-58.9 0-106.8-47.9-106.8-106.8S541 296.1 599.9 296.1 706.7 344 706.7 402.9s-47.9 106.8-106.8 106.8z" fill="#2E3742" /><path d="M599.9 333.1c-38.5 0-69.8 31.3-69.8 69.8s31.3 69.8 69.8 69.8 69.8-31.3 69.8-69.8-31.3-69.8-69.8-69.8z" fill="#FFFFFF" /></svg>