<?xml version="1.0" standalone="no"?><!DOCTYPE svg PUBLIC "-//W3C//DTD SVG 1.1//EN" "http://www.w3.org/Graphics/SVG/1.1/DTD/svg11.dtd"><svg class="icon" width="200px" height="200.00px" viewBox="0 0 1024 1024" version="1.1" xmlns="http://www.w3.org/2000/svg"><path fill="#4d90ee" d="M945.493 215.04L764.587 34.133H443.733c-37.546 0-68.266 30.72-68.266 68.267v34.133c0 20.48 13.653 34.134 34.133 34.134s34.133-13.654 34.133-34.134V102.4H716.8v136.533c0 37.547 30.72 68.267 68.267 68.267h102.4v238.933c0 20.48 13.653 34.134 34.133 34.134s34.133-13.654 34.133-34.134V225.28l-10.24-10.24z m-160.426-64.853l88.746 88.746h-88.746v-88.746zM604.16 419.84L423.253 238.933h-286.72c-37.546 0-68.266 30.72-68.266 68.267v614.4c0 37.547 30.72 68.267 68.266 68.267h34.134c20.48 0 34.133-13.654 34.133-34.134S191.147 921.6 170.667 921.6h-34.134V307.2h238.934v136.533c0 37.547 30.72 68.267 68.266 68.267h102.4c0 20.48 13.654 34.133 34.134 34.133S614.4 532.48 614.4 512v-81.92l-10.24-10.24z m-160.427-64.853l88.747 88.746h-88.747v-88.746zM307.2 443.733H204.8c-20.48 0-34.133-13.653-34.133-34.133s13.653-34.133 34.133-34.133h102.4c20.48 0 34.133 13.653 34.133 34.133s-13.653 34.133-34.133 34.133z m68.267 136.534H204.8c-20.48 0-34.133-13.654-34.133-34.134S184.32 512 204.8 512h170.667c20.48 0 34.133 13.653 34.133 34.133s-13.653 34.134-34.133 34.134z m0 136.533H204.8c-20.48 0-34.133-13.653-34.133-34.133s13.653-34.134 34.133-34.134h170.667c20.48 0 34.133 13.654 34.133 34.134S395.947 716.8 375.467 716.8z m512 68.267H819.2c-37.547 0-68.267 30.72-68.267 68.266h-102.4v-68.266c37.547 0 68.267-30.72 68.267-68.267v-68.267c0-37.546-30.72-68.266-68.267-68.266h-68.266c-37.547 0-68.267 30.72-68.267 68.266V716.8c0 37.547 30.72 68.267 68.267 68.267v68.266h-102.4c0-37.546-30.72-68.266-68.267-68.266h-68.267c-37.546 0-68.266 30.72-68.266 68.266V921.6c0 37.547 30.72 68.267 68.266 68.267H409.6c37.547 0 68.267-30.72 68.267-68.267h273.066c0 37.547 30.72 68.267 68.267 68.267h68.267c37.546 0 68.266-30.72 68.266-68.267v-68.267c0-37.546-30.72-68.266-68.266-68.266z m-307.2-136.534h68.266V716.8h-68.266v-68.267zM341.333 921.6v-68.267H409.6V921.6h-68.267z m477.867 0v-68.267h68.267V921.6H819.2z" /></svg>