<?xml version="1.0" standalone="no"?><!DOCTYPE svg PUBLIC "-//W3C//DTD SVG 1.1//EN" "http://www.w3.org/Graphics/SVG/1.1/DTD/svg11.dtd"><svg class="icon" width="200px" height="200.00px" viewBox="0 0 1024 1024" version="1.1" xmlns="http://www.w3.org/2000/svg"><path fill="#4d90ee" d="M941.568 953.088H75.52c-16.896 0-30.72-13.824-30.72-30.72s13.824-30.72 30.72-30.72h866.048c16.896 0 30.72 13.824 30.72 30.72s-13.568 30.72-30.72 30.72z"  /><path fill="#0e932e" d="M510.464 949.248c-16.896 0-30.72-13.824-30.72-30.72V151.04L217.6 313.6c-11.264 6.912-17.92 18.944-17.92 32v571.136c0 16.896-13.824 30.72-30.72 30.72s-30.72-13.824-30.72-30.72V345.344c0-34.56 17.408-66.048 46.848-84.224l282.112-174.592c14.848-9.216 33.792-9.728 49.152-1.024 15.36 8.448 24.832 24.832 24.832 42.24v790.784c0 16.896-13.568 30.72-30.72 30.72z"  /><path fill="#0e932e" d="M863.744 941.568c-16.896 0-30.72-13.824-30.72-30.72V450.56c0-12.8-6.912-24.832-17.92-31.488L502.528 232.96c-14.592-8.704-19.456-27.648-10.752-41.984 8.704-14.592 27.648-19.456 42.24-10.752L846.592 366.08c29.44 17.664 47.872 49.92 47.872 84.224v460.288c0 17.152-13.824 30.976-30.72 30.976zM407.04 479.744h-131.84c-16.896 0-30.72-13.824-30.72-30.72s13.824-30.72 30.72-30.72H407.04c16.896 0 30.72 13.824 30.72 30.72s-13.824 30.72-30.72 30.72zM407.04 632.32h-131.84c-16.896 0-30.72-13.824-30.72-30.72s13.824-30.72 30.72-30.72H407.04c16.896 0 30.72 13.824 30.72 30.72s-13.824 30.72-30.72 30.72zM407.04 784.896h-131.84c-16.896 0-30.72-13.824-30.72-30.72s13.824-30.72 30.72-30.72H407.04c16.896 0 30.72 13.824 30.72 30.72s-13.824 30.72-30.72 30.72z"  /><path fill="#0e932e" d="M740.608 577.792h-131.84c-16.896 0-30.72-13.824-30.72-30.72s13.824-30.72 30.72-30.72h131.84c16.896 0 30.72 13.824 30.72 30.72s-13.568 30.72-30.72 30.72zM740.608 743.168h-131.84c-16.896 0-30.72-13.824-30.72-30.72s13.824-30.72 30.72-30.72h131.84c16.896 0 30.72 13.824 30.72 30.72s-13.568 30.72-30.72 30.72z"  /></svg>