<?xml version="1.0" standalone="no"?><!DOCTYPE svg PUBLIC "-//W3C//DTD SVG 1.1//EN" "http://www.w3.org/Graphics/SVG/1.1/DTD/svg11.dtd"><svg class="icon" width="200px" height="200.00px" viewBox="0 0 1024 1024" version="1.1" xmlns="http://www.w3.org/2000/svg"><path d="M760.32 520.07424c-138.42432 0-250.64448-112.21504-250.64448-250.6496 0-6.97344 0.3584-13.86496 0.9216-20.69504a368.5632 368.5632 0 0 0-91.60704-11.50976C215.86432 237.22496 51.2 401.88928 51.2 605.01504S215.86432 972.8 418.98496 972.8c203.12576 0 367.78496-164.6592 367.78496-367.78496a368.4352 368.4352 0 0 0-10.10688-85.5296 253.72672 253.72672 0 0 1-16.34304 0.5888z m-341.33504 229.9904l-145.0496-145.0496 145.0496-145.05472 145.05984 145.05472-145.05984 145.0496z" fill="#FFAF22" /><path d="M760.32 51.2C642.9696 51.2 547.84 146.3296 547.84 263.68S642.9696 476.16 760.32 476.16 972.8 381.0304 972.8 263.68 877.6704 51.2 760.32 51.2zM855.04 307.2h-97.28a10.24 10.24 0 0 1-10.24-10.24c0-0.89088 0.14848-1.73568 0.3584-2.56a10.29632 10.29632 0 0 1-0.3584-2.56V148.48a10.24 10.24 0 0 1 20.48 0v138.24h87.04a10.24 10.24 0 0 1 0 20.48z" fill="#FFCD7D" /></svg>