<?xml version="1.0" standalone="no"?><!DOCTYPE svg PUBLIC "-//W3C//DTD SVG 1.1//EN" "http://www.w3.org/Graphics/SVG/1.1/DTD/svg11.dtd"><svg class="icon" width="200px" height="200.00px" viewBox="0 0 1024 1024" version="1.1" xmlns="http://www.w3.org/2000/svg"><path fill="#4d90ee" d="M511.33 158.56m-60.33 0a60.33 60.33 0 1 0 120.66 0 60.33 60.33 0 1 0-120.66 0ZM785.64 369c-5.66 0-11.38-1.6-16.46-4.94l-257.71-169.5-253.12 169.37c-13.77 9.21-32.4 5.52-41.62-8.25-9.21-13.77-5.52-32.4 8.25-41.62l269.67-180.44a29.994 29.994 0 0 1 33.17-0.13l274.33 180.44c13.84 9.1 17.68 27.71 8.58 41.55-5.76 8.77-15.33 13.52-25.09 13.52zM806.75 320.12h-587.5C152.29 320.12 98 374.41 98 441.37v365.72c0 66.96 54.29 121.25 121.25 121.25h587.49c66.96 0 121.25-54.29 121.25-121.25V441.37c0.01-66.96-54.28-121.25-121.24-121.25zM384.63 480c0-17.56 14.23-31.79 31.79-31.79h63.32c17.56 0 31.79 14.23 31.79 31.79s-14.23 31.79-31.79 31.79h-63.32c-17.55 0.01-31.79-14.23-31.79-31.79z m-192.59 0c0-17.56 14.23-31.79 31.79-31.79h66.41c17.56 0 31.79 14.23 31.79 31.79s-14.23 31.79-31.79 31.79h-66.41c-17.56 0.01-31.79-14.23-31.79-31.79zM770 736.01c0 17.56-14.23 31.79-31.79 31.79H223.83c-17.56 0-31.79-14.23-31.79-31.79s14.23-31.79 31.79-31.79H738.2c17.57-0.01 31.8 14.23 31.8 31.79z m0-128c0 17.56-14.23 31.79-31.79 31.79H223.83c-17.56 0-31.79-14.23-31.79-31.79s14.23-31.79 31.79-31.79H738.2c17.57-0.01 31.8 14.23 31.8 31.79z" /></svg>