<?xml version="1.0" standalone="no"?><!DOCTYPE svg PUBLIC "-//W3C//DTD SVG 1.1//EN" "http://www.w3.org/Graphics/SVG/1.1/DTD/svg11.dtd"><svg class="icon" width="200px" height="200.00px" viewBox="0 0 1024 1024" version="1.1" xmlns="http://www.w3.org/2000/svg"><path d="M390.095238 755.809524h243.809524v146.285714H390.095238z" fill="#C7B2FF" /><path d="M731.428571 975.238095H292.571429c-26.819048 0-48.761905-21.942857-48.761905-48.761905s21.942857-48.761905 48.761905-48.761904h438.857142c26.819048 0 48.761905 21.942857 48.761905 48.761904s-21.942857 48.761905-48.761905 48.761905zM926.47619 780.190476H97.52381c-53.638095 0-97.52381-43.885714-97.52381-97.523809V146.285714c0-53.638095 43.885714-97.52381 97.52381-97.523809h828.95238c53.638095 0 97.52381 43.885714 97.52381 97.523809v536.380953c0 53.638095-43.885714 97.52381-97.52381 97.523809z" fill="#8F65FF" /><path d="M195.047619 572.952381c-14.628571-14.628571-14.628571-36.571429 0-51.2l185.295238-185.295238c14.628571-14.628571 36.571429-14.628571 51.2 0l131.657143 131.657143 212.114286-212.114286c14.628571-14.628571 36.571429-14.628571 51.2 0 14.628571 14.628571 14.628571 36.571429 0 51.2l-238.933334 238.933333c-14.628571 14.628571-36.571429 14.628571-51.2 0L407.161905 414.47619l-158.476191 158.476191c-17.066667 14.628571-39.009524 14.628571-53.638095 0z" fill="#FFFFFF" /></svg>