<?xml version="1.0" standalone="no"?><!DOCTYPE svg PUBLIC "-//W3C//DTD SVG 1.1//EN" "http://www.w3.org/Graphics/SVG/1.1/DTD/svg11.dtd"><svg class="icon" width="200px" height="200.00px" viewBox="0 0 1024 1024" version="1.1" xmlns="http://www.w3.org/2000/svg"><path fill="#4d90ee" d="M895.5 424.9c30-46.6 58-130.4-7.3-190.7-2-1.9-4.4-3-6.9-3.7l-355-124.4L98 215.1l388.8 211.8 393.5-149.6c35.3 54.1-6.9 120.6-18.8 137.3l-374 132.5-358.3-196.7c-8.2-4.5-18.5-1.5-23 6.7s-1.5 18.5 6.7 23L484.5 584l385.6-136.6c47.7 53.9 5.2 116.5-6.4 131.6L489.2 711.7 130.9 515.1c-8.2-4.5-18.5-1.5-23 6.7s-1.5 18.5 6.7 23l371.6 203.9 380.9-134.9c49.7 54.2 6.6 117.7-5.1 132.9L487.5 879.4 129.2 682.7c-8.2-4.5-18.5-1.5-23 6.7s-1.5 18.5 6.7 23l371.6 203.9L882 775.5l2.9-3.4c29.7-34.2 67-112.9 10-178.3 27.7-38.3 53.8-109.2 0.6-168.9z m-405.3-46.7L418 338.9l323.7-110.1 73.9 25.9-325.4 123.5z"  /></svg>